<svg width="25" height="27" viewBox="0 0 25 27" fill="none" xmlns="http://www.w3.org/2000/svg">
<path id="Vector" fill-rule="evenodd" clip-rule="evenodd" d="M3.79675 0.0543424C1.96996 0.381979 0.323406 2.19381 0.0414401 4.18669C0.0054143 4.44144 -0.0064318 7.39861 0.00322057 13.7315L0.0172116 22.9073L0.127678 23.2936C0.62458 25.0312 1.81787 26.3212 3.41295 26.8452C3.75902 26.9589 3.84935 26.9631 6.33035 26.9813L8.89067 27L9.06031 26.8774C9.39113 26.6383 9.40049 26.5802 9.40053 24.761L9.40063 23.1342L9.09595 23.1789C8.9284 23.2035 8.46221 23.2212 8.06003 23.2181C7.21554 23.2117 6.75252 23.1222 6.28906 22.876C5.91925 22.6794 5.46076 22.2079 5.31963 21.8789C5.26367 21.7484 5.13146 21.4389 5.02591 21.1912C4.69023 20.4032 4.34532 19.9595 3.67512 19.4532C3.57913 19.3807 3.45414 19.2423 3.39735 19.1456C3.30467 18.988 3.3017 18.9616 3.36863 18.8893C3.58118 18.6593 4.29458 18.7919 4.84647 19.1641C5.26176 19.4441 5.48835 19.7002 5.85816 20.3076C6.18966 20.8522 6.5174 21.1839 6.95322 21.416C7.24464 21.5711 7.32659 21.5898 7.79 21.6061C8.34531 21.6256 8.84903 21.5393 9.22216 21.3608C9.42286 21.2648 9.4389 21.2417 9.47166 21.0017C9.52314 20.6248 9.76225 20.0421 9.98533 19.7501C10.0927 19.6095 10.1806 19.4733 10.1806 19.4474C10.1806 19.4216 10.1177 19.4004 10.0408 19.4004C9.84679 19.4004 9.11706 19.2615 8.62064 19.13C7.42311 18.8128 6.23777 18.0234 5.63504 17.1416C5.19654 16.5001 4.8142 15.4417 4.64138 14.3907C4.53715 13.757 4.52107 12.1872 4.61413 11.7276C4.80415 10.7891 5.09416 10.136 5.66619 9.35831L5.80727 9.16646L5.69827 8.78593C5.53262 8.20776 5.51039 7.34651 5.64313 6.65137C5.70002 6.35374 5.78757 5.99778 5.83779 5.86036L5.92905 5.6105L6.33639 5.61441C6.68378 5.61773 6.8156 5.64763 7.23129 5.81738C7.86035 6.07425 8.49867 6.41074 8.97632 6.73727L9.35642 6.99714L9.61006 6.92384C10.3582 6.70774 11.6315 6.53446 12.4718 6.53446C13.3124 6.53446 14.5855 6.70774 15.3341 6.92395C15.5847 6.99635 15.5913 6.99519 15.8178 6.83979C16.5679 6.32526 17.5503 5.82102 18.11 5.66329C18.2645 5.61978 18.5274 5.58414 18.6941 5.58414H18.9972L19.097 5.87264C19.1519 6.03132 19.2434 6.4051 19.3004 6.7032C19.432 7.39223 19.4104 8.20771 19.2452 8.78593L19.1364 9.16646L19.2775 9.35831C20.1179 10.5008 20.3947 11.3914 20.391 12.9405C20.3879 14.2389 20.2015 15.2568 19.7812 16.27C19.0907 17.9348 17.4927 19.0204 15.2506 19.3478C14.6621 19.4338 14.6748 19.4214 14.9006 19.6864C15.131 19.9567 15.3155 20.3296 15.4308 20.7575C15.501 21.0181 15.5166 21.4496 15.5401 23.7774C15.5658 26.3303 15.573 26.5032 15.6608 26.6601C15.835 26.9714 15.7934 26.9664 18.3705 26.983C20.9183 26.9993 21.1534 26.9824 21.8182 26.735C23.3096 26.18 24.5861 24.6266 24.8553 23.0391C24.8873 22.8506 24.933 22.6551 24.9569 22.6048C25.0134 22.4858 25.0148 4.30265 24.9583 4.34046C24.9351 4.35591 24.9033 4.25034 24.8874 4.10584C24.8716 3.9613 24.7947 3.64221 24.7165 3.39673C24.1739 1.694 22.697 0.327135 21.1005 0.0501237C20.7001 -0.0193797 4.18513 -0.0153192 3.79675 0.0543424ZM0.0158467 13.4942C0.0158467 18.5264 0.0215503 20.585 0.0285702 18.0689C0.0355901 15.5528 0.0355901 11.4356 0.0285702 8.91956C0.0215503 6.40346 0.0158467 8.46209 0.0158467 13.4942ZM4.39685 19.2166C4.33494 19.391 4.58273 19.5286 4.71026 19.3906C4.75487 19.3424 4.7498 19.3062 4.68808 19.2324C4.59078 19.1161 4.43546 19.1077 4.39685 19.2166ZM4.88444 19.6909C4.84544 19.8007 4.99579 20.0333 5.10586 20.0333C5.24309 20.0333 5.32294 19.9031 5.26167 19.7792C5.1764 19.6067 4.93436 19.5501 4.88444 19.6909ZM5.38695 20.3321C5.32129 20.4031 5.35751 20.5585 5.47334 20.7027C5.57132 20.8245 5.60784 20.8403 5.68052 20.7923C5.80118 20.7125 5.81643 20.5805 5.72298 20.4262C5.64888 20.3038 5.46154 20.2514 5.38695 20.3321ZM5.99793 21.0985C5.90872 21.195 5.92773 21.3218 6.04911 21.44C6.23051 21.6166 6.28136 21.6309 6.38124 21.5332C6.50604 21.411 6.50063 21.3592 6.34468 21.1831C6.20419 21.0245 6.09172 20.997 5.99793 21.0985ZM6.84475 21.6981C6.80263 21.7437 6.76817 21.8136 6.76817 21.8534C6.76817 21.957 6.96258 22.0899 7.11429 22.0899C7.39416 22.0899 7.42029 21.7747 7.1489 21.6724C6.95244 21.5983 6.93572 21.5997 6.84475 21.6981ZM8.87346 21.7236C8.78244 21.7631 8.76362 21.8058 8.77596 21.9444C8.78883 22.0888 8.8132 22.119 8.92849 22.1333C9.21124 22.1683 9.42866 21.8498 9.20885 21.7226C9.09678 21.6577 9.02487 21.6579 8.87346 21.7236ZM7.8504 21.8895C7.7044 22.0474 7.8252 22.2481 8.06631 22.2481C8.15284 22.2481 8.25814 22.2108 8.30031 22.1652C8.39094 22.0672 8.39172 22.0601 8.32644 21.9282C8.26814 21.8104 7.94766 21.7843 7.8504 21.8895Z" fill="white"/>
</svg>
