<svg width="17" height="27" viewBox="0 0 17 27" fill="none" xmlns="http://www.w3.org/2000/svg">
<path id="Vector" d="M2.83333 0C1.27057 0 0 1.51348 0 3.375V23.625C0 25.4865 1.27057 27 2.83333 27H14.1667C15.7294 27 17 25.4865 17 23.625V8.4375H11.3333C10.5497 8.4375 9.91667 7.6834 9.91667 6.75V0H2.83333ZM11.3333 0V6.75H17L11.3333 0ZM4.95833 13.5H12.0417C12.4312 13.5 12.75 13.8797 12.75 14.3438C12.75 14.8078 12.4312 15.1875 12.0417 15.1875H4.95833C4.56875 15.1875 4.25 14.8078 4.25 14.3438C4.25 13.8797 4.56875 13.5 4.95833 13.5ZM4.95833 16.875H12.0417C12.4312 16.875 12.75 17.2547 12.75 17.7188C12.75 18.1828 12.4312 18.5625 12.0417 18.5625H4.95833C4.56875 18.5625 4.25 18.1828 4.25 17.7188C4.25 17.2547 4.56875 16.875 4.95833 16.875ZM4.95833 20.25H12.0417C12.4312 20.25 12.75 20.6297 12.75 21.0938C12.75 21.5578 12.4312 21.9375 12.0417 21.9375H4.95833C4.56875 21.9375 4.25 21.5578 4.25 21.0938C4.25 20.6297 4.56875 20.25 4.95833 20.25Z" fill="white"/>
</svg>
