<svg xmlns="http://www.w3.org/2000/svg" width="500" height="500" viewBox="0 0 500 500" version="1.1"><path d="M 7.665 75.431 C 7.299 76.384, 7 88.827, 7 103.082 L 7 129 51.250 129.016 C 104.785 129.036, 115.739 129.754, 124.404 133.808 C 135.406 138.957, 143.587 148.359, 147.849 160.754 C 152.012 172.860, 150.021 188.296, 142.974 198.537 C 139.357 203.794, 131.181 211.212, 126.613 213.379 C 120.258 216.395, 113.828 216.796, 60.250 217.522 L 7 218.243 7 246.581 L 7 274.920 61.750 275.210 L 116.500 275.500 123.444 278.434 C 128.626 280.623, 132.066 283.034, 137.003 287.934 C 146.322 297.184, 147.186 299.479, 148.127 317.500 C 148.863 331.592, 148.782 332.772, 146.795 337 C 141.349 348.583, 132.232 356.729, 120 360.941 C 113.678 363.118, 112.043 363.194, 60.250 363.730 L 7 364.282 7 391.141 L 7 418 60.250 417.983 C 89.538 417.973, 117.663 417.527, 122.751 416.991 C 129.251 416.306, 134.752 414.942, 141.251 412.404 C 150.081 408.955, 162.382 402.432, 165.184 399.711 C 165.908 399.009, 167.987 397.389, 169.804 396.111 C 173.562 393.468, 172.286 392.869, 182.757 402.187 C 192.388 410.758, 204.245 417.626, 217.042 422.046 C 222.672 423.991, 226.158 424.338, 244.229 424.751 C 261.620 425.150, 266.128 424.946, 272.229 423.489 C 287.755 419.779, 303.382 411.871, 313.778 402.463 C 317.098 399.458, 320.194 397.004, 320.657 397.009 C 321.121 397.014, 324.125 399.264, 327.332 402.010 C 339.747 412.637, 352.947 419.556, 367.699 423.169 C 379.039 425.947, 404.057 426.128, 416.500 423.523 C 433.559 419.952, 452.346 409.297, 464.819 396.119 C 481.345 378.659, 489.730 360.858, 491.924 338.576 C 492.628 331.428, 493 284.170, 493 201.826 L 493 76 465.500 76 L 438 76 438 204.647 L 438 333.295 435.824 339.397 C 431.310 352.061, 423.003 361.158, 410.500 367.132 C 404.917 369.799, 403.657 369.998, 392.390 369.999 C 380.757 370, 380.040 369.876, 374.153 366.839 C 365.354 362.302, 357.810 354.530, 353.685 345.754 L 350.275 338.500 349.599 207.045 C 349.228 134.745, 348.678 75.345, 348.379 75.045 C 348.079 74.745, 335.721 74.340, 320.917 74.144 L 294 73.787 293.971 106.144 C 293.905 179.256, 292.015 324.076, 291.011 332.917 C 289.741 344.112, 286.969 350.031, 279.500 357.500 C 273.650 363.350, 266.699 367.310, 258.425 369.508 C 249.768 371.807, 237.501 370.688, 229.213 366.843 C 221.284 363.164, 212.278 354.319, 208.388 346.388 L 205.500 340.500 205 246 L 204.500 151.500 200.180 141 C 192.420 122.142, 187.664 114.673, 175.987 103.007 C 161.281 88.314, 148.869 81.389, 129.498 77.071 C 120.025 74.959, 116.583 74.813, 63.915 74.271 C 11.809 73.735, 8.288 73.808, 7.665 75.431" stroke="none" fill="#040404" fill-rule="evenodd"/></svg>